# xmcd
#
# Track frame offsets:
#	150
#	16500
#	31144
#	47533
#	58043
#	72320
#	86216
#	104443
#	123598
#	139388
#	151068
#	165227
#	175272
#	196436
#	219550
#
# Disc length: 3113 seconds
#
# Revision: 1
# Processed by: cddbd v1.5.1PL2 Copyright (c) Steve Scherf et al.
# Submitted via: audiograbber 1.80
#
DISCID=c80c270f
DTITLE=Vabank Unit - Let It Rain
DYEAR=1900
DGENRE=
TTITLE0=Let It Rain
TTITLE1=High Lonesome Sound
TTITLE2=Put Yourself In My Place
TTITLE3=Don't You Believe In Good
TTITLE4=Drivin' Nails In My Coffin
TTITLE5=Every Time You Say Goodbye
TTITLE6=Back Home
TTITLE7=I Need You Since You've Gone
TTITLE8=Colorado Country Morning
TTITLE9=I Hope You Have Learned
TTITLE10=Losing My Belief
TTITLE11=I Ain't Broke(But I'm Badly Bent)
TTITLE12=Walls Of Time
TTITLE13=I Could Love You Again
TTITLE14=Datová stopa
EXTD=
EXTT0=
EXTT1=
EXTT2=
EXTT3=
EXTT4=
EXTT5=
EXTT6=
EXTT7=
EXTT8=
EXTT9=
EXTT10=
EXTT11=
EXTT12=
EXTT13=
EXTT14=
PLAYORDER=
